<svg width="24" height="24" viewBox="0 0 24 24" fill="none" xmlns="http://www.w3.org/2000/svg">
  <path d="M12 4C7.58 4 4 5.79 4 8V16C4 18.21 7.58 20 12 20C16.42 20 20 18.21 20 16V8C20 5.79 16.42 4 12 4ZM12 6C16.42 6 18 7.79 18 8C18 8.21 16.42 10 12 10C7.58 10 6 8.21 6 8C6 7.79 7.58 6 12 6ZM6 11.45C7.07 12.13 9.05 12.5 12 12.5C14.95 12.5 16.93 12.13 18 11.45V13C18 13.21 16.42 15 12 15C7.58 15 6 13.21 6 13V11.45ZM6 16.45C7.07 17.13 9.05 17.5 12 17.5C14.95 17.5 16.93 17.13 18 16.45V18C18 18.21 16.42 20 12 20C7.58 20 6 18.21 6 18V16.45Z" fill="white"/>
</svg>
